# xmcd
#
# Track frame offsets: 
#        150
#        10521
#        29311
#        46251
#        62372
#        79212
#        93688
#        104972
#        128731
#        141469
#
# Disc length: 1933 seconds
#
# Revision: 0
# Processed by: cddbd v1.5.2PL0 Copyright (c) Steve Scherf et al.
# Submitted via: ExactAudioCopy v0.99pb4
#
DISCID=84078b0a
DTITLE=Bush Wiebe - Mennist To Society
DYEAR=2007
DGENRE=Blues
TTITLE0=Mennist To Society
TTITLE1=Mean Old Squinty Eyed Dog
TTITLE2=Bush Weibe Blues
TTITLE3=Mennonite Girl
TTITLE4=Moving On
TTITLE5=Old Colony Blues
TTITLE6=Hot Hot Mate
TTITLE7=Meddashlop Sunday
TTITLE8=Jantsied Blues
TTITLE9=Noodle Funk
EXTD=
EXTT0=
EXTT1=
EXTT2=
EXTT3=
EXTT4=
EXTT5=
EXTT6=
EXTT7=
EXTT8=
EXTT9=
PLAYORDER=
